/* XPM */
static char *f664136c9cce4150f931fd1189ad0427JI9k9mAYGTnYsK7D[] = {
/* columns rows colors chars-per-pixel */
"24 24 33 1 ",
"  c None",
". c #3FBBFE",
"X c #3ABFFE",
"o c #4AAFFD",
"O c #4DAFFD",
"+ c #4DADFE",
"@ c #4CAFFE",
"# c #4EAEFE",
"$ c #42B7FE",
"% c #46B4FE",
"& c #47B4FE",
"* c #49B0FD",
"= c #4AB0FE",
"- c #4DB0FE",
"; c #19DBFE",
": c #19DCFE",
"> c #1ADCFE",
", c #2EC9FD",
"< c #2ECAFD",
"1 c #2DC9FE",
"2 c #2EC9FE",
"3 c #28CFFE",
"4 c #35C4FD",
"5 c #34C5FD",
"6 c #34C4FE",
"7 c #21D4FE",
"8 c #21D5FE",
"9 c #08EAFE",
"0 c #09EAFE",
"q c #09EBFE",
"w c #11E3FD",
"e c #11E2FE",
"r c #11E3FE",
/* pixels */
"           64           ",
"           6..          ",
"           6X.$         ",
"           6X $%@       ",
"           6X  %=-      ",
"           6X   =@@     ",
"     qe    6X    @@     ",
"     qe:   6X   @@@     ",
"      w:7  64  %=@      ",
"        7326. $%        ",
"         326X.$         ",
"          26X.          ",
"          26X.          ",
"         326X.$         ",
"        7326X $%=       ",
"      w:7  6X  %-@      ",
"     qe:   6X   =@@     ",
"     qe    6X    @@     ",
"           6X           ",
"           6X  %        ",
"           64 $%        ",
"           6..$         ",
"           6X.          ",
"           6X           "
};
