/* XPM */
static char * battery_full_xpm[] = {
"24 24 2 1",
" 	c None",
".	c #FFFFFF",
"                        ",
"                        ",
"                        ",
"                        ",
"                        ",
"                        ",
"   .................... ",
"   .                 .. ",
"  ..                  . ",
"  ..  ..............  . ",
"....  ..............  . ",
"....  ..............  . ",
"....  ..............  . ",
"  ..  ..............  . ",
"  ..                  . ",
"  ..                 .. ",
"   .................... ",
"    .................   ",
"                        ",
"                        ",
"                        ",
"                        ",
"                        ",
"                        "};
