/* XPM */
static char *bc857767e91e45b69fe2d7d1ce1f1f7au9csqq3KO7wIyGqe[] = {
/* columns rows colors chars-per-pixel */
"18 18 84 1 ",
"  c None",
". c #EA7E01",
"X c #EC8601",
"o c #EE8E01",
"O c #F09701",
"+ c #F29F00",
"@ c #EE991C",
"# c #F4A800",
"$ c #F6B000",
"% c #F8B800",
"& c #EFA63F",
"* c #F1A73A",
"= c #F9C100",
"- c #F1B55C",
"; c #ECD1AD",
": c #F5D8B1",
"> c #C5CACE",
", c #C6CBCF",
"< c #C7CCD0",
"1 c #C8CDD1",
"2 c #C9CED2",
"3 c #C9CFD2",
"4 c #CACFD2",
"5 c #CAD0D3",
"6 c #CBD0D3",
"7 c #CBD1D4",
"8 c #CCD1D4",
"9 c #CCD1D5",
"0 c #CDD2D5",
"q c #CDD3D5",
"w c #CDD2D6",
"e c #CED2D6",
"r c #CED3D6",
"t c #CFD4D7",
"y c #D0D5D8",
"u c #D1D6D9",
"i c #D2D7DA",
"p c #D3D8DA",
"a c #D4D8DB",
"s c #D5D8DC",
"d c #D5D9DC",
"f c #D6DADD",
"g c #D7DBDE",
"h c #D8DCDE",
"j c #D9DDDF",
"k c #DADEE0",
"l c #DADFE0",
"z c #DBDEE1",
"x c #DBDFE1",
"c c #DCDFE2",
"v c #DDE0E2",
"b c #DEE1E3",
"n c #DFE2E4",
"m c #E0E3E5",
"M c #E1E4E6",
"N c #E2E4E6",
"B c #E2E5E6",
"V c #E3E5E7",
"C c #E2E5E8",
"Z c #E4E6E8",
"A c #E5E7E9",
"S c #E6E8EA",
"D c #E7E9EA",
"F c #E8EAEB",
"G c #E8EBEB",
"H c #E9EBEC",
"J c #EAEBED",
"K c #EAECED",
"L c #EBECEE",
"P c #ECEDEE",
"I c #ECEEEF",
"U c #F7EFE6",
"Y c #F0EFEC",
"T c #F7F1EA",
"R c #F6F3EF",
"E c #EDEFF0",
"W c #EEF0F1",
"Q c #EFF1F2",
"! c #F0F2F2",
"~ c #F1F2F3",
"^ c #F2F3F4",
"/ c #F3F4F5",
"( c #F5F5F4",
") c #F4F5F6",
/* pixels */
"                  ",
"                  ",
"                  ",
"   =%$#+          ",
"   %$#+Oo         ",
"  %$#+OoX.        ",
"  $#+O*:UT(       ",
"  #+O-(((~~~      ",
"  +O@YWWEELLLHS   ",
"   &;LLHSSSAZVVV  ",
"   SSAAVVVnnnvvxh ",
"  VVmnvvvxxhhffpf ",
"  cxxhhfffaiiiyrr ",
"  ffaiiiirrr7773  ",
"   trrrr3333<>>   ",
"                  ",
"                  ",
"                  "
};
