/* XPM */
static char *_525326b92144d68a010e3dc43a95521Z3Tlk8sNBJP4YJk5[] = {
/* columns rows colors chars-per-pixel */
"18 18 135 2 ",
"   c None",
".  c #0284C5",
"X  c #0385C5",
"o  c #0386C5",
"O  c #0788C7",
"+  c #0A8AC7",
"@  c #0A8AC8",
"#  c #0C8BC8",
"$  c #0D8CC9",
"%  c #108ECA",
"&  c #118ECA",
"*  c #128FCA",
"=  c #1390CB",
"-  c #1490CB",
";  c #1692CC",
":  c #1792CC",
">  c #1994CD",
",  c #1A94CD",
"<  c #1A95CD",
"1  c #1B95CE",
"2  c #1C94CE",
"3  c #1C96CE",
"4  c #1D96CE",
"5  c #1F98CF",
"6  c #2098CF",
"7  c #2299CF",
"8  c #249ACF",
"9  c #2C9ACC",
"0  c #2199D0",
"q  c #229AD0",
"w  c #239AD0",
"e  c #249BD1",
"r  c #259BD1",
"t  c #259CD1",
"y  c #269DD2",
"u  c #279DD2",
"i  c #289ED2",
"p  c #299ED3",
"a  c #2A9FD3",
"s  c #2FA0D2",
"d  c #2CA0D4",
"f  c #2CA1D4",
"g  c #2EA1D4",
"h  c #30A3D5",
"j  c #32A4D6",
"k  c #33A5D6",
"l  c #34A6D6",
"z  c #34A6D7",
"x  c #35A6D7",
"c  c #36A7D7",
"v  c #39A9D8",
"b  c #3AA9D8",
"n  c #3AAAD9",
"m  c #3BABD9",
"M  c #3CABD9",
"N  c #3DABDA",
"B  c #3DACD9",
"V  c #3DACDA",
"C  c #3EADDA",
"Z  c #3FADDA",
"A  c #4CA9D3",
"S  c #40ADDB",
"D  c #40AEDB",
"F  c #43B0DC",
"G  c #44B0DC",
"H  c #45B1DC",
"J  c #47B2DD",
"K  c #48B3DE",
"L  c #48B4DD",
"P  c #49B4DE",
"I  c #4AB5DE",
"U  c #4BB5DF",
"Y  c #4CB6DF",
"T  c #4DB6DF",
"R  c #55B3D7",
"E  c #56B4D9",
"W  c #4EB7E0",
"Q  c #4FB8E0",
"!  c #52BAE1",
"~  c #53BBE2",
"^  c #54BBE2",
"/  c #55BCE2",
"(  c #56BDE3",
")  c #57BDE3",
"_  c #59BEE4",
"`  c #5ABFE4",
"'  c #61BFE3",
"]  c #5DC1E5",
"[  c #5EC2E6",
"{  c #5FC2E6",
"}  c #5FC3E6",
"|  c #62C0E2",
" . c #60C3E6",
".. c #66C1E5",
"X. c #61C4E7",
"o. c #62C4E7",
"O. c #62C5E7",
"+. c #63C5E7",
"@. c #64C6E7",
"#. c #67C7E7",
"$. c #6CC8E7",
"%. c #65C7E8",
"&. c #66C6E8",
"*. c #69C9E9",
"=. c #6ACAEA",
"-. c #6CC9EA",
";. c #6CCBEA",
":. c #6DCCEB",
">. c #77D0EB",
",. c #73D0ED",
"<. c #74D1ED",
"1. c #75D1EE",
"2. c #75D2EE",
"3. c #77D3EE",
"4. c #7DD5EE",
"5. c #7CD6F0",
"6. c #7DD7F0",
"7. c #7ED7F1",
"8. c #80D9F2",
"9. c #81D9F2",
"0. c #82DAF2",
"q. c #83DBF3",
"w. c #86DCF4",
"e. c #88DCF3",
"r. c #8BE0F5",
"t. c #8CE1F6",
"y. c #8DE1F6",
"u. c #8EE2F6",
"i. c #90E4F7",
"p. c #93E6F8",
"a. c #96E7F9",
"s. c #97E8FA",
"d. c #99EAFB",
"f. c #9CEBFB",
"g. c #A4F1FE",
/* pixels */
"                                    ",
"                                    ",
"          e.7.1.=.} ^ U C           ",
"        d.u.8.$.#.o.( U S z         ",
"      g.f.i.>.A E o.( Y S z a       ",
"    p.d.p.u.4...;.o.( U C z a 4     ",
"    r.u.u.w.7.,.=.} ( J N j y 2     ",
"    8.8.8.7.1.:.o._ T H n 9 8 >     ",
"    1.1.R | ;.#.} ~ U C c d 8 :     ",
"    =.;.| %.o.} ^ Y H b h y 3 *     ",
"    } } } } _ ~ Y H N z a 7 : #     ",
"    ~ ~ ~ ~ T U H N z d 7 > % +     ",
"    U L U H F C b j d y 4 = + .     ",
"      N C n b j g d 7 < : + .       ",
"        j j d d y 5 > = $ .         ",
"          y 7 5 < : = # .           ",
"                                    ",
"                                    "
};
