/* XPM */
static char *b2f621214172475d941940a14ef840fazfuAex5OdH0JDih4[] = {
/* columns rows colors chars-per-pixel */
"18 18 66 1 ",
"  c None",
". c #DE6608",
"X c #CF721F",
"o c #E46301",
"O c #E46302",
"+ c #E56701",
"@ c #E66C01",
"# c #E46D04",
"$ c #E77001",
"% c #E87501",
"& c #E97A01",
"* c #E97E01",
"= c #EA7E01",
"- c #EB8301",
"; c #EB8402",
": c #EC8701",
"> c #EE8C01",
", c #E58F0D",
"< c #EF9101",
"1 c #F09501",
"2 c #F19A00",
"3 c #F29E00",
"4 c #F09E03",
"5 c #F3A300",
"6 c #F4A800",
"7 c #F5AC00",
"8 c #F6B100",
"9 c #F7B500",
"0 c #F8BA00",
"q c #FABE00",
"w c #CAAD35",
"e c #AD9F56",
"r c #949071",
"t c #5EA0AC",
"y c #5EA4AC",
"u c #6BA4A5",
"i c #69A6A6",
"p c #70A6A1",
"a c #73B4A1",
"s c #289BD7",
"d c #2A9DD7",
"f c #2DA2D4",
"g c #199BE1",
"h c #199BE2",
"j c #199CE2",
"k c #189CE3",
"l c #1C9EE2",
"z c #1C9FE2",
"x c #3EBDE5",
"c c #3ABFEA",
"v c #4BACC9",
"b c #4DB0C9",
"n c #4DB5C8",
"m c #56B9C6",
"M c #4CBBD3",
"N c #48B9D7",
"B c #49BAD6",
"V c #4ABDD7",
"C c #46BCDB",
"Z c #3BC0EA",
"A c #35C1F1",
"S c #879981",
"D c #879B82",
"F c #85AD89",
"G c #8CB382",
"H c #87B88A",
/* pixels */
"                  ",
"                  ",
"     q0987653     ",
"    q098765321    ",
"   q098765321<>   ",
"  q098765321<>:;  ",
"  098765321>>:-*  ",
"  987653211>:-*&  ",
"  87653211>:-=&%  ",
"  HAAAAAm>:-*&%$  ",
"  wGVAZFe:-*&%$@  ",
"  54aAM,:-*&%$@+  ",
" lnAAAAAAAAAcxXO  ",
"  fCAAAAAANDDr.   ",
"   fNAAAAAp#+O    ",
"  hhzvcAAAAcvlkk  ",
"   kkkdyiutskkkl  ",
"                  "
};
