/* XPM */
static char *_0fac0449d964693923091b6f4e3c56ac6ldBbya2jfRvoSk[] = {
/* columns rows colors chars-per-pixel */
"18 18 64 1 ",
"  c None",
". c #0079D9",
"X c #007AD8",
"o c #007AD9",
"O c #017BD9",
"+ c #0079DA",
"@ c #017BDA",
"# c #027CDA",
"$ c #027CDB",
"% c #037DDB",
"& c #047EDB",
"* c #047EDC",
"= c #057FDC",
"- c #0680DD",
"; c #0781DD",
": c #0882DE",
"> c #0983DF",
", c #0A84DF",
"< c #0A84E0",
"1 c #0A85E0",
"2 c #0B85E0",
"3 c #0C86E1",
"4 c #0D87E1",
"5 c #0D87E2",
"6 c #0E88E2",
"7 c #0F89E2",
"8 c #0F89E3",
"9 c #1089E3",
"0 c #108AE3",
"q c #108AE4",
"w c #118BE4",
"e c #128CE4",
"r c #128CE5",
"t c #138DE5",
"y c #128CE6",
"u c #138DE6",
"i c #148EE6",
"p c #158FE6",
"a c #158FE7",
"s c #1590E6",
"d c #1690E7",
"f c #1791E8",
"g c #1892E8",
"h c #1993E9",
"j c #1A94EA",
"k c #1B95EA",
"l c #1C96EB",
"z c #1D97EC",
"x c #1E98EC",
"c c #1F99EC",
"v c #1E98ED",
"b c #1F99ED",
"n c #1F9BED",
"m c #209AEE",
"M c #219BEE",
"N c #219BEF",
"B c #229CEF",
"V c #229DEF",
"C c #239DEF",
"Z c #239DF0",
"A c #249EF0",
"S c #259FF0",
"D c #26A0F1",
"F c #27A1F2",
/* pixels */
"                  ",
"                  ",
"                  ",
"      FSSSmn      ",
"    FFSVmmnnl     ",
"    SVVmnzlhjdd   ",
"   Zmmmlzjhddit00 ",
"  Vmmzljjfditt075 ",
" mnnhjjfiieee555,,",
"mllhhjaaie0955,,,-",
"lljdfite0055<<==%%",
"jgjiite855,,,===@@",
" iit0772,,,-=%@@@ ",
" te87522-,%%@@X@  ",
"    2,-,%%@@@@    ",
"     -==## .@     ",
"                  ",
"                  "
};
