/* XPM */
static char *_d91b539b86543cbc57a85e10c6b713eSoHVMcveHMGeEbWJ[] = {
/* columns rows colors chars-per-pixel */
"18 18 84 1 ",
"  c None",
". c #0777DD",
"X c #0879DF",
"o c #1080E4",
"O c #1184E4",
"+ c #1385E6",
"@ c #C3CACD",
"# c #C4C9CD",
"$ c #C5CACF",
"% c #C5CBCF",
"& c #C6CBCF",
"* c #C6CBD0",
"= c #C7CCD0",
"- c #C8CDD0",
"; c #C8CDD1",
": c #C9CED2",
"> c #CACFD2",
", c #CACFD3",
"< c #CBD0D3",
"1 c #CCD1D4",
"2 c #CDD2D5",
"3 c #CDD2D6",
"4 c #CED2D6",
"5 c #CED3D6",
"6 c #CFD3D7",
"7 c #CFD4D7",
"8 c #D0D4D7",
"9 c #D0D5D8",
"0 c #D1D5D8",
"q c #D1D6D9",
"w c #D2D6DA",
"e c #D2D7DA",
"r c #D3D8DA",
"t c #D3D8DB",
"y c #D4D8DB",
"u c #D4D9DB",
"i c #D5D9DC",
"p c #D6DADD",
"a c #D7DBDE",
"s c #D8DCDE",
"d c #D8DCDF",
"f c #D9DDDF",
"g c #DADEE0",
"h c #DBDFE1",
"j c #DCDFE2",
"k c #DCE0E2",
"l c #DDE0E2",
"z c #DDE0E3",
"x c #DEE1E3",
"c c #DFE2E4",
"v c #E0E3E5",
"b c #E1E4E6",
"n c #E3E4E6",
"m c #E2E5E7",
"M c #E3E5E7",
"N c #E3E6E7",
"B c #E4E6E8",
"V c #E5E7E9",
"C c #E6E8EA",
"Z c #E7E9EA",
"A c #E7E9EB",
"S c #E8EAEB",
"D c #E9EAEC",
"F c #E9EBEC",
"G c #EAECED",
"H c #EBECEE",
"J c #EBEDEE",
"K c #ECEDEE",
"L c #ECEDEF",
"P c #EDEEEF",
"I c #EEEFF0",
"U c #EFF0F1",
"Y c #F0F1F2",
"T c #F1F2F2",
"R c #F1F2F3",
"E c #F2F3F3",
"W c #F2F3F4",
"Q c #F3F4F5",
"! c #F4F5F6",
"~ c #F5F6F7",
"^ c #F6F7F7",
"/ c #F9F9FB",
"( c #F9FAFA",
") c #FBFBFB",
/* pixels */
"                  ",
"                  ",
"       )))        ",
"      ^!QRRR      ",
"     EREELLLID    ",
"    LLJDSSSVVBBN  ",
"  DASVVBNNNvcxjj  ",
"  NNNcccjjggfdpp  ",
"  jcggfgppp0p000  ",
"  pppp0000622211  ",
"  0076222<>>>**   ",
"    ,>>**%%@@%    ",
"                  ",
"   +     o    O   ",
"                  ",
"                  ",
"      .    X      ",
"                  "
};
