/* XPM */
static char *cb817c5e91ca4a08be618c526a69d9aaFZtctyUDBcpmvBkq[] = {
/* columns rows colors chars-per-pixel */
"18 18 51 1 ",
"  c None",
". c #E46601",
"X c #E66B01",
"o c #E77001",
"O c #E87601",
"+ c #E97B01",
"@ c #E97C0F",
"# c #EB8001",
"$ c #EC8601",
"% c #ED8B01",
"& c #EF9101",
"* c #EE920F",
"= c #F09601",
"- c #F19B00",
"; c #F2A100",
": c #F4A600",
"> c #F5AC00",
", c #F4AD0D",
"< c #F6B100",
"1 c #F8B600",
"2 c #F9BC00",
"3 c #FFBD0E",
"4 c #FFBE0F",
"5 c #FFBF0F",
"6 c #F2A828",
"7 c #F7BE28",
"8 c #F7BD2F",
"9 c #F7BE2F",
"0 c #F7BF2F",
"q c #F7BE30",
"w c #F7BE32",
"e c #FAC40D",
"r c #FFC921",
"t c #FFCE25",
"y c #FFCE26",
"u c #FFCE27",
"i c #FDD427",
"p c #FCD42F",
"a c #FDD52F",
"s c #F9C831",
"d c #FBCE31",
"f c #FACB36",
"g c #FBCC36",
"h c #FBCD36",
"j c #FBCE36",
"k c #FFD531",
"l c #FDD636",
"z c #FDD736",
"x c #FDD931",
"c c #FED936",
"v c #FFD936",
/* pixels */
"                  ",
"      3 rr 3      ",
"    5uvvkpzvt3    ",
"    kxe1<>:,dk    ",
"  3ki21<>:;-=7k5  ",
"  tx21<>:;-=&%st  ",
" 3ve1<>:;-=&%$*v3 ",
"  v1<>:;-=&%$#+j  ",
" ra<>:;-=&%$#+Oqr ",
" ra>:;-=&%$#+Ooqr ",
"  z:;-=%%$#++XXj  ",
" 3v,-==%$#+OXX@v3 ",
"  td=&%%+++XX.qt  ",
"  3k7%$+++XXX6k5  ",
"    ks*++XX@wk    ",
"    3tzfsqfvu5    ",
"      3 rr 3      ",
"                  "
};
