/* XPM */
static char * icons8_wi_fi_22_xpm[] = {
"22 22 2 1",
" 	c None",
".	c #FFFFFF",
"                      ",
"                      ",
"                      ",
"         ....         ",
"     ............     ",
"   ................   ",
" ........    ........ ",
"......          ......",
" ....   ......   .... ",
"  .   ..........   .  ",
"     ............     ",
"    ..............    ",
"     ...      ...     ",
"      .        .      ",
"         ....         ",
"        ......        ",
"         ....         ",
"          ..          ",
"                      ",
"                      ",
"                      ",
"                      "};
